<?xml version="1.0" encoding="UTF-8" standalone="no"?>
<!-- Created with Inkscape (http://www.inkscape.org/) -->
<svg xmlns:dc="http://purl.org/dc/elements/1.1/" xmlns:cc="http://creativecommons.org/ns#" xmlns:rdf="http://www.w3.org/1999/02/22-rdf-syntax-ns#" xmlns:svg="http://www.w3.org/2000/svg" xmlns="http://www.w3.org/2000/svg" xmlns:sodipodi="http://sodipodi.sourceforge.net/DTD/sodipodi-0.dtd" xmlns:inkscape="http://www.inkscape.org/namespaces/inkscape" id="svg2" version="1.1" inkscape:version="0.91 r13725" width="95.724716" height="98.540146" viewBox="0 0 95.724716 98.540146" sodipodi:docname="favicon.svg" inkscape:export-filename="/home/douglas/Imagens/favicon-pitanga.png" inkscape:export-xdpi="90" inkscape:export-ydpi="90">
  <metadata id="metadata8">
    <rdf:RDF>
      <cc:Work rdf:about="">
        <dc:format>image/svg+xml</dc:format>
        <dc:type rdf:resource="http://purl.org/dc/dcmitype/StillImage"/>
        <dc:title/>
      </cc:Work>
    </rdf:RDF>
  </metadata>
  <defs id="defs6"/>
  <sodipodi:namedview pagecolor="#ffffff" bordercolor="#666666" borderopacity="1" objecttolerance="10" gridtolerance="10" guidetolerance="10" inkscape:pageopacity="0" inkscape:pageshadow="2" inkscape:window-width="1366" inkscape:window-height="704" id="namedview4" showgrid="false" inkscape:zoom="3.3869891" inkscape:cx="105.95414" inkscape:cy="35.706774" inkscape:window-x="0" inkscape:window-y="27" inkscape:window-maximized="1" inkscape:current-layer="svg2" showguides="false"/>
  <g id="g3338" inkscape:export-xdpi="476.71906" inkscape:export-ydpi="476.71906">
    <path style="fill:#dff29f" d="M 38.425886,96.099167 C 36.361235,94.913934 33.615031,93.55924 32.323211,93.088731 22.139832,89.379719 9.7343836,79.255339 4.5651621,70.434729 2.2503205,66.484751 1.97042,65.121217 2.0644823,58.252683 2.1571089,51.488987 2.5336764,49.85652 5.0653812,45.243416 10.474727,35.386864 13.633447,33.361626 26.120551,31.743733 29.67587,31.283087 33.213468,30.277496 33.981878,29.509085 36.497608,26.993356 34.671984,20.55221 28.999428,11.930071 24.081362,4.4547337 22.919564,1.670172 24.718712,1.670172 c 1.071581,0 5.489082,4.343945 8.637355,8.493534 l 2.438002,3.213415 3.317733,-2.913008 c 7.27007,-6.3832063 16.802203,-4.8682866 27.233793,4.328203 2.586238,2.280027 4.457769,4.736475 4.457769,5.850973 0,2.536764 -5.795302,7.92359 -9.368818,8.708466 -5.30842,1.165926 -2.847582,2.3497 4.884571,2.3497 9.517212,0 18.978405,2.762198 23.831931,6.95774 4.066066,3.514836 5.306573,8.202333 5.361136,20.258109 0.04195,9.27881 -1.034428,13.723196 -4.553656,18.801448 -2.940985,4.243844 -14.016996,13.10679 -16.379535,13.10679 -0.884274,0 -2.350427,0.820628 -3.258121,1.823618 -5.009094,5.534985 -25.516338,7.68577 -32.894986,3.450007 z m 4.872561,-7.767225 C 42.547178,86.864528 41.631418,83.85209 41.263424,81.637636 40.89543,79.423181 39.129805,75.435059 37.339813,72.775142 32.285892,65.265047 31.821001,60.703571 35.093831,50.73772 c 1.48901,-4.534076 3.005474,-9.854279 3.36992,-11.822674 l 0.662628,-3.578902 -4.080199,0.29423 c -3.879286,0.279741 -4.087507,0.444082 -4.228616,3.337478 -0.08163,1.673787 -0.919094,4.629991 -1.861031,6.569343 -2.314623,4.765571 -2.053315,14.489108 0.567021,21.099394 3.12064,7.872396 8.668793,18.374906 11.591272,21.94198 3.091671,3.773583 4.178967,3.65078 2.183621,-0.246627 z m 9.48107,2.256637 c 0.536541,-0.646491 1.888518,-3.497117 3.004394,-6.334723 1.115875,-2.837606 3.058018,-6.512398 4.315872,-8.166205 1.257855,-1.653808 3.162261,-5.032327 4.232013,-7.507821 1.751203,-4.052427 1.832163,-5.015207 0.812527,-9.662526 -1.265078,-5.765991 -3.772842,-11.230612 -6.003338,-13.08176 -0.811969,-0.673874 -1.476308,-1.789631 -1.476308,-2.479459 0,-0.689828 -0.739051,-2.739302 -1.642336,-4.554387 -1.563166,-3.141066 -1.879846,-3.301266 -6.569343,-3.323243 l -4.927007,-0.02309 0,4.578688 c 0,3.574592 -0.725693,5.783819 -3.30917,10.074108 -2.927486,4.861571 -3.237134,5.975793 -2.68462,9.660217 0.343502,2.290639 1.993026,6.942639 3.665608,10.337779 1.672582,3.395141 4.192808,9.657081 5.600503,13.915423 2.592851,7.843496 3.227459,8.680135 4.981205,6.566999 z m 21.87296,-19.471066 c 1.64814,-3.87122 3.574414,-9.23024 4.280608,-11.908932 1.191128,-4.518112 1.142754,-5.14132 -0.668869,-8.616994 -1.074072,-2.060653 -2.558686,-4.249434 -3.29914,-4.863956 -0.740454,-0.614523 -1.34628,-1.716176 -1.34628,-2.448119 0,-0.731944 -0.924049,-2.58065 -2.053443,-4.108239 -1.650724,-2.232722 -2.755047,-2.777431 -5.630866,-2.777431 -1.967582,0 -3.577422,0.459275 -3.577422,1.020609 0,0.561334 1.470668,3.650407 3.26815,6.864606 1.797482,3.214198 4.127392,8.533662 5.177579,11.821031 2.06407,6.461101 1.625729,9.950876 -1.886294,15.017425 -0.894483,1.290407 -2.793304,4.668926 -4.219601,7.507821 -1.426298,2.838894 -3.380877,6.168787 -4.343507,7.399763 -0.96263,1.230975 -1.750237,3.102204 -1.750237,4.158286 0,1.450087 1.597689,0.212943 6.526352,-5.053568 4.863752,-5.197152 7.289746,-8.766812 9.52297,-14.012302 z M 34.97634,88.244729 c -1.514399,-3.31766 -8.937649,-16.612523 -11.248143,-20.145155 -2.624651,-4.012962 -2.889744,-5.106877 -2.842823,-11.73097 0.02924,-4.128675 0.691474,-9.090991 1.522927,-11.411836 2.134025,-5.95672 1.950029,-6.68597 -1.686927,-6.68597 -5.533393,0 -10.19748,5.356979 -12.6695106,14.551679 -2.0890328,7.770143 4.3461346,22.583161 11.6941516,26.918597 1.840717,1.086049 5.740921,3.601026 8.66712,5.588837 5.103284,3.466737 7.25041,4.420309 6.563205,2.914818 z m 48.382732,-9.084454 c 3.896303,-5.108318 9.029277,-16.566012 9.029277,-20.154926 0,-6.572041 -2.837165,-13.966435 -6.696664,-17.45326 -3.157176,-2.852319 -7.380501,-4.405727 -7.380501,-2.71467 0,0.311642 1.535729,3.489118 3.412731,7.06106 4.493901,8.551909 4.327756,10.585452 -2.264495,27.716384 -1.02513,2.663949 -2.907493,6.253626 -4.183032,7.977059 -3.748481,5.064732 -3.674519,5.272746 1.067799,3.003157 2.485571,-1.189552 5.642269,-3.635213 7.014885,-5.434804 z M 55.243568,28.06876 c 0.277803,-0.449494 1.701382,-1.056519 3.16351,-1.348945 1.462127,-0.292425 3.688068,-1.405061 4.946536,-2.472523 l 2.288123,-1.94084 -12.200209,0.600485 c -6.710115,0.330266 -12.376174,0.754882 -12.591242,0.94359 -0.748666,0.656909 0.819615,1.53308 5.751273,3.213133 5.633625,1.919191 7.913213,2.184316 8.642009,1.0051 z m -0.159704,-9.183152 c 5.696292,-0.377211 9.150156,-0.997883 9.150156,-1.644315 0,-0.571112 -2.005996,-2.295414 -4.457768,-3.831782 -3.687866,-2.310947 -5.461796,-2.796021 -10.271129,-2.808599 -5.339756,-0.01396 -6.07926,0.242517 -9.077195,3.148229 -5.884506,5.703488 -3.980993,6.370613 14.655936,5.136467 z" id="path3352" inkscape:connector-curvature="0"/>
    <path style="fill:#f6a0a2" d="M 38.425886,96.099167 C 36.361235,94.913934 33.615031,93.55924 32.323211,93.088731 22.139832,89.379719 9.7343836,79.255339 4.5651621,70.434729 2.2503205,66.484751 1.97042,65.121217 2.0644823,58.252683 2.1571091,51.488987 2.5336764,49.85652 5.0653812,45.243416 c 1.5922397,-2.901274 4.1618467,-6.541909 5.7102378,-8.090299 2.853704,-2.853704 10.08704,-5.4189 15.341176,-5.440524 1.488604,-0.0061 4.389848,-0.515466 6.44721,-1.131866 l 3.740659,-1.120729 -0.512476,-4.965412 C 35.37277,20.430817 34.244658,17.981751 29.579597,11.00741 23.49756,1.914666 23.373011,1.670172 24.823075,1.670172 c 0.518976,0 2.918333,2.7450469 5.331904,6.1001043 2.413572,3.3550577 4.953206,6.1001047 5.643632,6.1001047 0.859203,0 1.07551,0.716413 0.685493,2.270367 -0.442778,1.764166 -0.02462,2.627601 1.875485,3.872597 1.731669,1.134633 2.173153,1.930161 1.512754,2.725894 -0.624946,0.753013 -0.581566,1.474656 0.131511,2.187733 0.793107,0.793107 0.760505,1.42984 -0.128026,2.500454 -0.969461,1.16813 -0.95327,1.515741 0.0867,1.861296 2.344193,0.778914 10.532468,1.569301 23.802255,2.297551 14.822478,0.813461 21.093224,2.497449 26.408112,7.091806 4.042184,3.494191 5.284821,8.204562 5.33929,20.239225 0.04195,9.27881 -1.034428,13.723196 -4.553656,18.801448 -2.940983,4.243844 -14.016994,13.10679 -16.379533,13.10679 -0.884274,0 -2.350427,0.820628 -3.258121,1.823618 -5.009094,5.534985 -25.516338,7.68577 -32.894986,3.450007 z m 4.872561,-7.767225 C 42.547178,86.864528 41.631418,83.85209 41.263424,81.637636 40.89543,79.423181 39.129805,75.435059 37.339813,72.775142 32.285892,65.265047 31.821001,60.703571 35.093831,50.73772 c 1.48901,-4.534076 3.005474,-9.854279 3.36992,-11.822674 l 0.662628,-3.578902 -4.080199,0.29423 c -3.879286,0.279741 -4.087507,0.444082 -4.228616,3.337478 -0.08163,1.673787 -0.919094,4.629991 -1.861031,6.569343 -2.314623,4.765571 -2.053315,14.489108 0.567021,21.099394 3.12064,7.872396 8.668793,18.374906 11.591272,21.94198 3.091671,3.773583 4.178967,3.65078 2.183621,-0.246627 z m 9.48107,2.256637 c 0.536541,-0.646491 1.888518,-3.497117 3.004394,-6.334723 1.115875,-2.837606 3.058018,-6.512398 4.315872,-8.166205 1.257855,-1.653808 3.162261,-5.032327 4.232013,-7.507821 1.751203,-4.052427 1.832163,-5.015207 0.812527,-9.662526 -1.265078,-5.765991 -3.772842,-11.230612 -6.003338,-13.08176 -0.811969,-0.673874 -1.476308,-1.789631 -1.476308,-2.479459 0,-0.689828 -0.739051,-2.739302 -1.642336,-4.554387 -1.563166,-3.141066 -1.879846,-3.301266 -6.569343,-3.323243 l -4.927007,-0.02309 0,4.578688 c 0,3.574592 -0.725693,5.783819 -3.30917,10.074108 -2.927486,4.861571 -3.237134,5.975793 -2.68462,9.660217 0.343502,2.290639 1.993026,6.942639 3.665608,10.337779 1.672582,3.395141 4.192808,9.657081 5.600503,13.915423 2.592851,7.843496 3.227459,8.680135 4.981205,6.566999 z m 21.87296,-19.471066 c 1.64814,-3.87122 3.574414,-9.23024 4.280608,-11.908932 1.191128,-4.518112 1.142754,-5.14132 -0.668869,-8.616994 -1.074072,-2.060653 -2.558686,-4.249434 -3.29914,-4.863956 -0.740454,-0.614523 -1.34628,-1.716176 -1.34628,-2.448119 0,-0.731944 -0.924049,-2.58065 -2.053443,-4.108239 -1.650724,-2.232722 -2.755047,-2.777431 -5.630866,-2.777431 -1.967582,0 -3.577422,0.459275 -3.577422,1.020609 0,0.561334 1.470668,3.650407 3.26815,6.864606 1.797482,3.214198 4.127392,8.533662 5.177579,11.821031 2.06407,6.461101 1.625729,9.950876 -1.886294,15.017425 -0.894483,1.290407 -2.793304,4.668926 -4.219601,7.507821 -1.426298,2.838894 -3.380877,6.168787 -4.343507,7.399763 -0.96263,1.230975 -1.750237,3.102204 -1.750237,4.158286 0,1.450087 1.597689,0.212943 6.526352,-5.053568 4.863752,-5.197152 7.289746,-8.766812 9.52297,-14.012302 z M 34.97634,88.244729 c -1.514399,-3.31766 -8.937649,-16.612523 -11.248143,-20.145155 -2.624651,-4.012962 -2.889744,-5.106877 -2.842823,-11.73097 0.02924,-4.128675 0.691474,-9.090991 1.522927,-11.411836 2.134025,-5.95672 1.950029,-6.68597 -1.686927,-6.68597 -5.533393,0 -10.19748,5.356979 -12.6695106,14.551679 -2.0890328,7.770143 4.3461346,22.583161 11.6941516,26.918597 1.840717,1.086049 5.740921,3.601026 8.66712,5.588837 5.103284,3.466737 7.25041,4.420309 6.563205,2.914818 z m 48.382732,-9.084454 c 3.896303,-5.108318 9.029277,-16.566012 9.029277,-20.154926 0,-6.572041 -2.837165,-13.966435 -6.696664,-17.45326 -3.157176,-2.852319 -7.380501,-4.405727 -7.380501,-2.71467 0,0.311642 1.535729,3.489118 3.412731,7.06106 4.493901,8.551909 4.327756,10.585452 -2.264495,27.716384 -1.02513,2.663949 -2.907493,6.253626 -4.183032,7.977059 -3.748481,5.064732 -3.674519,5.272746 1.067799,3.003157 2.485571,-1.189552 5.642269,-3.635213 7.014885,-5.434804 z M 64.103369,25.100889 c 2.889703,-2.407365 4.663501,-2.385004 2.476845,0.03122 -0.934241,1.032325 -2.372219,1.862905 -3.195505,1.845732 -1.137494,-0.02372 -0.96495,-0.474366 0.71866,-1.876955 z M 50.673292,21.454567 c -0.684676,-1.107828 4.704915,-2.317187 6.202337,-1.39173 0.797128,0.492653 0.594965,0.911637 -0.680961,1.411293 -2.555553,1.000761 -4.895906,0.992469 -5.521376,-0.01956 z M 67.987931,19.44586 c 0,-0.546625 0.422315,-0.732859 0.938477,-0.413853 0.516163,0.319007 0.938478,0.766245 0.938478,0.993864 0,0.227619 -0.422315,0.413853 -0.938478,0.413853 -0.516162,0 -0.938477,-0.447239 -0.938477,-0.993864 z" id="path3350" inkscape:connector-curvature="0"/>
    <path style="fill:#cce360" d="M 45.933707,97.68586 C 41.872651,97.157535 23.8421,88.518312 18.441864,84.513316 13.354378,80.740264 7.9964009,74.722377 4.8438875,69.240558 0.85348552,62.301758 0.8852077,55.788499 4.9502406,47.403923 9.8061706,37.388036 16.791701,32.639932 26.671397,32.639932 c 1.59458,0 4.422547,-0.63648 6.284372,-1.414399 l 3.385135,-1.4144 -0.530596,-5.14098 C 35.369325,20.397432 34.317021,18.089935 29.579597,11.00741 23.49756,1.914666 23.373011,1.670172 24.823075,1.670172 c 0.518976,0 2.918333,2.7450469 5.331904,6.1001043 2.413572,3.3550577 4.953206,6.1001047 5.643632,6.1001047 0.859203,0 1.07551,0.716413 0.685493,2.270367 -0.442778,1.764166 -0.02462,2.627601 1.875485,3.872597 1.731669,1.134633 2.173153,1.930161 1.512754,2.725894 -0.624946,0.753013 -0.581566,1.474656 0.131511,2.187733 0.775878,0.775877 0.784369,1.401087 0.03135,2.308415 -1.899125,2.288305 0.201945,3.759132 4.842657,3.390041 2.394973,-0.19048 4.476927,0.07821 4.650649,0.6002 0.180409,0.542077 6.083997,1.172705 13.844741,1.478914 20.831769,0.821938 27.265924,3.857774 30.764689,14.515743 2.941611,8.960766 2.707545,16.799502 -0.721201,24.152454 -1.499035,3.214683 -3.716189,6.958122 -4.927008,8.318753 -3.444415,3.870582 -12.049691,10.195573 -13.871282,10.195573 -0.905976,0 -2.369574,0.798181 -3.252439,1.773737 -0.882866,0.975555 -4.710035,2.875972 -8.50482,4.223153 -6.467825,2.296117 -10.131137,2.686073 -16.927487,1.801905 z m -0.469239,-5.499206 c 0,-0.799877 -0.583534,-2.594715 -1.296743,-3.98853 -0.713209,-1.393815 -1.59783,-4.346034 -1.965824,-6.560488 -0.367994,-2.214455 -2.133618,-6.202577 -3.92361,-8.862494 -4.599656,-6.83506 -5.438835,-12.189974 -3.082832,-19.671983 1.024729,-3.254254 2.224529,-6.567149 2.666222,-7.36199 0.441693,-0.79484 1.105697,-3.645465 1.475564,-6.334723 l 0.672487,-4.889559 -4.196302,0 c -4.092141,0 -7.058478,1.772408 -5.954872,3.558079 0.280387,0.453677 -0.531031,3.817764 -1.803154,7.475748 -2.106022,6.055867 -2.228214,7.248326 -1.365827,13.328947 0.520916,3.672937 1.529608,7.612282 2.241537,8.754101 0.711929,1.141819 1.551066,3.186422 1.864749,4.543561 0.313685,1.357139 2.328601,5.36913 4.477594,8.915537 6.751423,11.141632 10.191011,14.885919 10.191011,11.093794 z M 62.791981,89.01496 c 0.766051,-1.481379 3.020748,-4.108328 5.010437,-5.837664 3.329689,-2.893994 6.007135,-7.045603 8.382807,-12.998261 0.514994,-1.290406 1.379895,-3.401981 1.922003,-4.692387 0.542107,-1.290407 1.450149,-4.355475 2.017869,-6.811261 0.894304,-3.868483 0.788551,-4.942699 -0.791494,-8.039842 -1.003042,-1.966126 -2.488052,-4.126126 -3.300021,-4.800001 -0.811969,-0.673874 -1.476308,-1.872704 -1.476308,-2.664067 0,-0.791362 -1.077279,-2.851226 -2.393954,-4.577476 -2.082409,-2.730178 -2.937335,-3.138636 -6.569343,-3.138636 -5.211439,0 -5.309325,0.952029 -0.90724,8.823692 1.797482,3.214198 4.127393,8.533662 5.177579,11.821031 2.09965,6.572474 1.627388,9.982119 -2.122657,15.325213 -1.024481,1.459689 -3.183015,5.198526 -4.796741,8.308527 -1.613725,3.109999 -3.703582,7.08007 -4.644123,8.822378 -0.940542,1.742309 -1.442807,3.600286 -1.116143,4.128839 0.910856,1.473796 3.989247,-0.54106 5.607329,-3.670085 z M 55.25033,87.598986 c 1.32789,-2.806931 2.414347,-5.488614 2.414347,-5.959296 0,-0.470682 1.299866,-2.650198 2.888591,-4.843368 1.588724,-2.193172 3.73761,-5.951791 4.7753,-8.352488 1.678323,-3.8828 1.76399,-4.920143 0.775621,-9.391977 -1.478904,-6.691249 -3.176777,-10.589223 -5.546604,-12.733886 -1.074937,-0.972805 -1.95443,-2.32375 -1.95443,-3.0021 0,-0.67835 -0.897434,-2.955129 -1.994297,-5.059507 l -1.994297,-3.826141 -5.278905,0.277951 -5.278904,0.277952 -0.285807,4.988803 c -0.216959,3.78706 -1.077257,6.226039 -3.571351,10.124936 -2.968329,4.640246 -3.222583,5.555981 -2.633432,9.48472 0.358661,2.391725 2.049027,7.175135 3.756368,10.629801 1.707341,3.454665 3.395967,7.499453 3.752502,8.988415 0.356534,1.488963 0.963562,3.129519 1.34895,3.645682 0.385387,0.516162 1.009393,2.41658 1.38668,4.223149 1.507589,7.218818 4.184338,7.408557 7.439668,0.527354 z M 37.800234,91.060162 C 36.534709,88.212731 29.262156,75.521058 25.991058,70.451414 c -2.58057,-3.999441 -4.04475,-7.374738 -4.147792,-9.561682 -0.300824,-6.384626 0.269443,-11.833305 1.707983,-16.319111 1.850576,-5.770662 1.257649,-7.238301 -2.92428,-7.238301 -8.100274,0 -15.6958481,13.292139 -13.5373897,23.690226 1.3870491,6.681924 8.3716277,17.890671 12.3321667,19.790476 1.677511,0.804674 6.217383,3.580949 10.088603,6.1695 6.742448,4.508441 8.967858,5.603079 8.289885,4.07764 z m 33.993899,-2.646008 c 1.777809,-1.326263 4.526356,-2.961154 6.107882,-3.633091 3.492071,-1.483662 7.57967,-6.527453 11.631487,-14.35238 3.94713,-7.622753 4.464384,-11.938391 2.361851,-19.705773 -1.347939,-4.979691 -2.463681,-6.95944 -5.525023,-9.803482 -2.494439,-2.317378 -4.73858,-3.567801 -6.41681,-3.575409 -3.330153,-0.0151 -3.239597,1.032722 0.725174,8.39103 4.273744,7.931733 4.154739,12.949374 -0.551679,23.260662 -0.998707,2.188065 -1.815831,4.340335 -1.815831,4.782821 0,1.775904 -2.945504,6.519653 -6.990454,11.258157 -2.349202,2.752001 -4.271277,5.180311 -4.271277,5.396246 0,0.958192 1.755255,0.211362 4.74468,-2.018781 z M 64.103369,25.100889 c 2.889703,-2.407365 4.663501,-2.385004 2.476845,0.03122 -0.934241,1.032325 -2.372219,1.862905 -3.195505,1.845732 -1.137494,-0.02372 -0.96495,-0.474366 0.71866,-1.876955 z M 50.673292,21.454567 c -0.684676,-1.107828 4.704915,-2.317187 6.202337,-1.39173 0.797128,0.492653 0.594965,0.911637 -0.680961,1.411293 -2.555553,1.000761 -4.895906,0.992469 -5.521376,-0.01956 z M 67.987931,19.44586 c 0,-0.546625 0.422315,-0.732859 0.938477,-0.413853 0.516163,0.319007 0.938478,0.766245 0.938478,0.993864 0,0.227619 -0.422315,0.413853 -0.938478,0.413853 -0.516162,0 -0.938477,-0.447239 -0.938477,-0.993864 z" id="path3348" inkscape:connector-curvature="0"/>
    <path style="fill:#f37c80" d="M 45.933707,97.68586 C 41.872651,97.157535 23.8421,88.518312 18.441864,84.513316 13.354378,80.740264 7.9964009,74.722377 4.8438875,69.240558 0.85348552,62.301758 0.8852077,55.788499 4.9502406,47.403923 9.19576,38.647074 13.570138,34.897711 21.06405,33.592471 c 3.355058,-0.584362 7.789365,-1.488526 9.854015,-2.009253 4.634334,-1.168829 16.557187,-1.079711 19.786027,0.147891 1.314712,0.499852 7.149767,0.908823 12.966789,0.908823 11.734354,0 19.97894,2.003873 25.467029,6.189842 3.903623,2.977438 7.004349,12.095475 7.004349,20.597082 0,6.627507 -3.304825,15.379005 -7.652525,20.264636 -3.444414,3.870582 -12.04969,10.195573 -13.871281,10.195573 -0.905976,0 -2.369574,0.798181 -3.252439,1.773737 -0.882866,0.975555 -4.710035,2.875972 -8.50482,4.223153 -6.467825,2.296117 -10.131137,2.686073 -16.927487,1.801905 z m -0.469239,-5.499206 c 0,-0.799877 -0.583534,-2.594715 -1.296743,-3.98853 -0.713209,-1.393815 -1.59783,-4.346034 -1.965824,-6.560488 -0.367994,-2.214455 -2.133618,-6.202577 -3.92361,-8.862494 -4.599656,-6.83506 -5.438835,-12.189974 -3.082832,-19.671983 1.024729,-3.254254 2.224529,-6.567149 2.666222,-7.36199 0.441693,-0.79484 1.105697,-3.645465 1.475564,-6.334723 l 0.672487,-4.889559 -4.196302,0 c -4.092141,0 -7.058478,1.772408 -5.954872,3.558079 0.280387,0.453677 -0.531031,3.817764 -1.803154,7.475748 -2.106022,6.055867 -2.228214,7.248326 -1.365827,13.328947 0.520916,3.672937 1.529608,7.612282 2.241537,8.754101 0.711929,1.141819 1.551066,3.186422 1.864749,4.543561 0.313685,1.357139 2.328601,5.36913 4.477594,8.915537 6.751423,11.141632 10.191011,14.885919 10.191011,11.093794 z M 62.791981,89.01496 c 0.766051,-1.481379 3.020748,-4.108328 5.010437,-5.837664 3.329689,-2.893994 6.007135,-7.045603 8.382807,-12.998261 0.514994,-1.290406 1.379895,-3.401981 1.922003,-4.692387 0.542107,-1.290407 1.450149,-4.355475 2.017869,-6.811261 0.894304,-3.868483 0.788551,-4.942699 -0.791494,-8.039842 -1.003042,-1.966126 -2.488052,-4.126126 -3.300021,-4.800001 -0.811969,-0.673874 -1.476308,-1.872704 -1.476308,-2.664067 0,-0.791362 -1.077279,-2.851226 -2.393954,-4.577476 -2.082409,-2.730178 -2.937335,-3.138636 -6.569343,-3.138636 -5.211439,0 -5.309325,0.952029 -0.90724,8.823692 1.797482,3.214198 4.127393,8.533662 5.177579,11.821031 2.09965,6.572474 1.627388,9.982119 -2.122657,15.325213 -1.024481,1.459689 -3.183015,5.198526 -4.796741,8.308527 -1.613725,3.109999 -3.703582,7.08007 -4.644123,8.822378 -0.940542,1.742309 -1.442807,3.600286 -1.116143,4.128839 0.910856,1.473796 3.989247,-0.54106 5.607329,-3.670085 z M 55.25033,87.598986 c 1.32789,-2.806931 2.414347,-5.488614 2.414347,-5.959296 0,-0.470682 1.299866,-2.650198 2.888591,-4.843368 1.588724,-2.193172 3.73761,-5.951791 4.7753,-8.352488 1.678323,-3.8828 1.76399,-4.920143 0.775621,-9.391977 -1.478904,-6.691249 -3.176777,-10.589223 -5.546604,-12.733886 -1.074937,-0.972805 -1.95443,-2.32375 -1.95443,-3.0021 0,-0.67835 -0.897434,-2.955129 -1.994297,-5.059507 l -1.994297,-3.826141 -5.278905,0.277951 -5.278904,0.277952 -0.285807,4.988803 c -0.216959,3.78706 -1.077257,6.226039 -3.571351,10.124936 -2.968329,4.640246 -3.222583,5.555981 -2.633432,9.48472 0.358661,2.391725 2.049027,7.175135 3.756368,10.629801 1.707341,3.454665 3.395967,7.499453 3.752502,8.988415 0.356534,1.488963 0.963562,3.129519 1.34895,3.645682 0.385387,0.516162 1.009393,2.41658 1.38668,4.223149 1.507589,7.218818 4.184338,7.408557 7.439668,0.527354 z M 37.800234,91.060162 C 36.534709,88.212731 29.262156,75.521058 25.991058,70.451414 c -2.58057,-3.999441 -4.04475,-7.374738 -4.147792,-9.561682 -0.300824,-6.384626 0.269443,-11.833305 1.707983,-16.319111 1.850576,-5.770662 1.257649,-7.238301 -2.92428,-7.238301 -8.100274,0 -15.6958481,13.292139 -13.5373897,23.690226 1.3870491,6.681924 8.3716277,17.890671 12.3321667,19.790476 1.677511,0.804674 6.217383,3.580949 10.088603,6.1695 6.742448,4.508441 8.967858,5.603079 8.289885,4.07764 z m 33.993899,-2.646008 c 1.777809,-1.326263 4.526356,-2.961154 6.107882,-3.633091 3.492071,-1.483662 7.57967,-6.527453 11.631487,-14.35238 3.94713,-7.622753 4.464384,-11.938391 2.361851,-19.705773 -1.347939,-4.979691 -2.463681,-6.95944 -5.525023,-9.803482 -2.494439,-2.317378 -4.73858,-3.567801 -6.41681,-3.575409 -3.330153,-0.0151 -3.239597,1.032722 0.725174,8.39103 4.273744,7.931733 4.154739,12.949374 -0.551679,23.260662 -0.998707,2.188065 -1.815831,4.340335 -1.815831,4.782821 0,1.775904 -2.945504,6.519653 -6.990454,11.258157 -2.349202,2.752001 -4.271277,5.180311 -4.271277,5.396246 0,0.958192 1.755255,0.211362 4.74468,-2.018781 z" id="path3346" inkscape:connector-curvature="0"/>
    <path style="fill:#f26b70" d="M 45.933707,97.462944 C 43.869056,97.113426 40.490537,95.928974 38.425886,94.830835 36.361235,93.732695 31.316575,91.220899 27.215529,89.249066 17.477774,84.567034 8.5146825,75.969672 4.2297924,67.201237 1.3381768,61.283945 1.2260582,60.675032 2.1956613,56.153928 4.4766081,45.518241 11.139815,36.190102 17.746432,34.383669 c 10.14622,-2.774261 26.409369,-4.198153 30.925658,-2.707643 4.176814,1.378473 3.52138,2.840861 -1.273256,2.840861 l -3.585728,0 -0.416879,5.396246 c -0.311769,4.035662 -1.18493,6.579364 -3.463064,10.088634 -2.737427,4.216773 -2.986709,5.168004 -2.459401,9.384776 0.322731,2.580814 1.98191,7.648593 3.687064,11.261731 1.705153,3.613139 4.068212,9.525548 5.251242,13.138686 1.18303,3.613139 2.926343,7.396696 3.874029,8.407905 1.711072,1.825764 1.732619,1.825764 3.095553,0 0.754869,-1.011209 2.264914,-4.199772 3.355656,-7.085695 1.090743,-2.885924 3.354505,-7.175948 5.030583,-9.533387 4.757358,-6.691326 5.786609,-10.794771 4.375484,-17.444294 -0.648866,-3.057592 -2.168637,-7.1934 -3.377271,-9.190684 -3.883509,-6.417553 -7.821311,-14.757749 -7.337467,-15.540625 0.258423,-0.418136 4.416474,-0.760248 9.240113,-0.760248 10.236539,0 20.643689,2.956785 24.95901,7.091126 3.597891,3.446997 5.782535,9.88918 6.255303,18.445955 0.381923,6.912487 0.24116,7.538724 -3.141194,13.975356 -2.691729,5.122371 -5.014966,7.954363 -9.686399,11.807577 -3.379954,2.787944 -7.20265,5.317492 -8.494879,5.621218 -1.29223,0.303727 -3.194139,1.313719 -4.226464,2.244427 -2.49416,2.248647 -14.539998,6.538319 -17.944617,6.390303 -1.486039,-0.06461 -4.39115,-0.403433 -6.455801,-0.75295 z m 0.469239,-4.797834 c 0,-0.536725 -0.787532,-2.542721 -1.75007,-4.457768 C 43.690337,86.292295 42.607578,83.036178 42.246745,80.971528 41.885911,78.906877 40.067801,74.898894 38.2065,72.0649 34.006024,65.669305 33.304619,60.341287 35.652037,52.660646 c 0.920207,-3.010871 2.178773,-6.530099 2.796814,-7.820505 0.61804,-1.290407 1.402003,-4.162359 1.742138,-6.382114 l 0.618428,-4.035921 -5.414915,0.28201 c -5.247527,0.273293 -5.42456,0.369042 -5.726944,3.097443 -0.171617,1.548488 -1.138652,5.28037 -2.148967,8.293073 -2.131791,6.356873 -1.71956,14.463279 1.064673,20.936484 0.920391,2.139865 1.960315,5.196806 2.310942,6.793201 0.350628,1.596395 1.033363,3.147191 1.51719,3.446213 0.483827,0.299021 1.769203,2.309859 2.856391,4.468531 3.881648,7.707216 11.135159,14.824511 11.135159,10.926049 z m 19.581507,-6.582638 c 7.258867,-7.936687 11.609382,-16.229176 14.180279,-27.028944 1.099977,-4.620753 1.03457,-5.349241 -0.812289,-9.047218 -1.104726,-2.212 -2.635572,-4.542164 -3.401881,-5.178143 -0.766308,-0.63598 -1.393288,-1.75519 -1.393288,-2.487133 0,-0.731944 -0.924049,-2.58065 -2.053443,-4.108238 -1.827111,-2.471299 -2.602914,-2.777431 -7.038582,-2.777431 -2.84728,0 -4.985139,0.42142 -4.985139,0.982684 0,0.540475 1.66353,4.024573 3.696735,7.74244 7.757774,14.185673 8.16684,19.210743 2.359343,28.98278 -1.938726,3.262217 -4.751772,8.003712 -6.251212,10.536654 -3.280998,5.542455 -4.388606,9.941285 -2.502989,9.940548 0.709723,-2.78e-4 4.400833,-3.401378 8.202466,-7.557999 z m -27.711017,5.916167 c 0.235159,-0.387122 -1.112441,-3.306282 -2.994666,-6.487022 -1.882225,-3.180739 -4.600046,-7.826203 -6.039601,-10.323253 -1.439556,-2.497049 -3.649762,-6.229349 -4.911569,-8.294 -2.927136,-4.78957 -3.187881,-14.541946 -0.591999,-22.141924 0.953191,-2.790659 1.55147,-5.60182 1.329511,-6.247023 -0.23273,-0.676506 -1.99754,-1.173097 -4.169014,-1.173097 -6.596141,0 -11.1911687,4.9216 -13.8646013,14.849971 -2.5557582,9.491362 4.5068643,24.443644 14.1460803,29.948679 2.776455,1.585655 7.370832,4.576795 10.209727,6.646976 5.478078,3.99473 6.208438,4.336324 6.886132,3.220693 z m 33.333355,-2.915477 c 1.880847,-1.474471 4.947224,-3.396349 6.814171,-4.270839 C 84.646164,81.896398 93.324716,66.781517 93.326086,58.85302 93.328057,47.401514 86.543149,36.905439 79.53333,37.516007 l -3.278361,0.285552 4.015561,7.818674 4.015562,7.818675 -1.165478,5.642691 c -1.099954,5.325447 -2.588087,9.293629 -6.823141,18.194249 -0.997631,2.096678 -3.697716,5.965653 -6.000186,8.597723 -2.302472,2.632071 -4.186311,5.034177 -4.186311,5.338016 0,1.270062 2.293916,0.381672 5.495815,-2.128425 z" id="path3344" inkscape:connector-curvature="0"/>
    <path style="fill:#ef4b50" d="m 44.340551,96.504214 c -4.086106,-0.794619 -6.458396,-2.515604 -5.807123,-4.212795 0.255868,-0.666779 -0.391862,-2.641898 -1.439399,-4.389154 -3.767352,-6.283809 -5.82804,-10.401158 -4.92694,-9.844248 0.504918,0.312056 2.170729,2.787031 3.701801,5.499944 3.921173,6.947936 8.427554,11.626429 9.839098,10.214885 0.836431,-0.836431 0.807057,-1.816999 -0.123825,-4.133508 -0.671212,-1.67032 -1.842042,-5.359677 -2.601843,-8.198572 -0.759802,-2.838894 -2.788498,-7.273201 -4.508214,-9.854014 -3.077789,-4.618903 -5.084389,-12.471664 -3.74191,-14.64384 0.869609,-1.40706 2.252646,0.818766 2.271603,3.655864 0.0079,1.18289 1.357954,4.983724 3.000112,8.446298 1.642158,3.462573 4.28478,10.052385 5.872493,14.644025 3.347149,9.679903 5.296548,11.634603 8.053022,8.074921 0.99924,-1.290407 2.48342,-4.321699 3.29818,-6.736204 0.81476,-2.414505 2.734871,-6.1204 4.266912,-8.235323 1.532041,-2.114921 3.620287,-5.963108 4.640545,-8.551525 1.766485,-4.481606 1.783575,-4.990624 0.3581,-10.665471 -0.823305,-3.277591 -2.295801,-7.167144 -3.272214,-8.643449 -0.976413,-1.476305 -2.189299,-3.317663 -2.6953,-4.091907 -1.057506,-1.618113 -4.737927,-9.961722 -4.737927,-10.741004 0,-1.155637 20.246346,-0.404439 22.992701,0.853096 l 2.815433,1.289165 -2.580813,0.07622 c -3.459823,0.102184 -3.323278,1.673508 0.832683,9.582317 3.033649,5.773044 3.355665,7.041501 2.893789,11.398967 -0.834085,7.868997 -6.611023,20.998509 -12.037028,27.357109 -3.040948,3.56361 -4.57288,6.147066 -4.288935,7.232872 0.347723,1.329695 -0.643698,2.095244 -4.659022,3.597568 -5.135616,1.921477 -11.005049,2.264481 -17.415979,1.017761 z m 17.738082,-5.38018 c 0.927382,-1.384318 3.830702,-4.68311 6.451823,-7.33065 5.0134,-5.063931 9.844084,-14.840533 12.101112,-24.490892 1.234173,-5.276946 0.714619,-7.602369 -2.700764,-12.088113 -1.190741,-1.563912 -2.466089,-3.795964 -2.834106,-4.960116 -0.368017,-1.16415 -1.733268,-3.381303 -3.033892,-4.927007 -1.973098,-2.344894 -3.0553,-2.810369 -6.533947,-2.810369 -2.928585,0 -4.337972,0.439866 -4.736428,1.478226 -0.321224,0.837095 1.319289,5.212707 3.782447,10.088634 2.392333,4.735724 4.844764,10.559391 5.449849,12.94148 1.208105,4.756052 1.596594,3.629 -6.270829,18.19239 -1.951887,3.613139 -4.133252,7.250203 -4.847477,8.082364 -1.554316,1.810972 -3.168012,7.040378 -2.407277,7.801113 1.304098,1.304097 4.027977,0.338907 5.579489,-1.97706 z M 25.034987,87.726907 C 15.825582,82.404329 9.0038487,75.435907 4.5752605,66.827233 1.4989837,60.847298 1.1233833,59.505335 2.0918869,57.954514 c 0.6275989,-1.004946 1.1410889,-2.689578 1.1410889,-3.743626 0,-3.01039 5.1416999,-12.35354 8.5959532,-15.619985 3.374019,-3.190574 8.505341,-4.998888 14.208734,-5.007259 1.961242,-0.0029 4.823,-0.655308 6.359463,-1.449844 2.168802,-1.121531 4.368003,-1.301938 9.833485,-0.806668 6.852098,0.62092 10.729344,2.251278 5.353894,2.251278 -3.771759,0 -4.93547,1.578506 -4.93547,6.69468 0,3.352629 -0.726554,5.611116 -2.961897,9.207029 -1.629043,2.620583 -3.149235,4.577356 -3.378204,4.348387 -0.489855,-0.489855 1.56235,-7.156514 2.622453,-8.519126 0.401571,-0.516163 0.874426,-3.26121 1.050792,-6.100105 l 0.320662,-5.161626 -4.590107,0 c -5.320049,0 -5.120911,-0.257625 -8.34237,10.792492 -1.993777,6.838968 -2.209157,8.818023 -1.509629,13.87151 0.448766,3.241947 1.479021,7.176712 2.289456,8.74392 0.810434,1.567207 1.32662,3.560169 1.147079,4.428802 -0.506036,2.448241 -5.52385,-5.643773 -6.442145,-10.388975 -0.945198,-4.884214 -0.259796,-11.912035 1.732966,-17.769104 1.983509,-5.829871 0.661142,-7.76331 -4.807963,-7.029749 -5.317769,0.713261 -9.711316,5.443546 -12.3564153,13.303452 -1.9716978,5.858897 -2.0245491,6.628143 -0.8123868,11.824218 1.6301192,6.987697 8.0095801,17.275361 11.9742351,19.309924 6.07345,3.116746 16.751066,10.628156 15.043349,10.582584 -0.974802,-0.02601 -4.842067,-1.82143 -8.593923,-3.989816 z m 49.991526,-0.655275 c 1.548488,-1.025523 3.310419,-1.867371 3.915401,-1.870772 3.390469,-0.01906 13.772043,-17.087319 15.00156,-24.663938 0.351448,-2.165742 -0.186127,-5.806662 -1.51092,-10.233191 -1.611272,-5.383739 -2.803721,-7.523983 -5.50811,-9.886122 -2.138308,-1.867697 -2.906314,-3.028223 -2.018447,-3.050052 1.800929,-0.04428 7.482352,5.065665 7.482352,6.729721 0,0.681943 0.844629,2.815794 1.876955,4.741889 1.366048,2.548743 1.876955,5.294973 1.876955,10.088952 0,5.652513 -0.424183,7.350475 -2.990044,11.968992 -1.644525,2.960116 -3.756841,6.390134 -4.694038,7.622262 -2.740524,3.602956 -12.07287,10.429761 -14.24844,10.42303 -1.767278,-0.0055 -1.672723,-0.222042 0.816776,-1.870771 z" id="path3342" inkscape:connector-curvature="0"/>
    <path style="fill:#ec2b32" d="m 45.933707,96.540664 c -4.618834,-0.761978 -6.100104,-1.628818 -6.100104,-3.569767 0,-1.3512 0.16796,-1.345779 1.716232,0.05539 2.159329,1.954167 4.515083,1.990533 5.580829,0.08615 0.744513,-1.33037 0.934389,-1.33037 2.0385,0 1.707038,2.056855 3.545134,1.825684 4.848559,-0.609788 l 1.111473,-2.076805 0.76826,2.076805 c 1.41549,3.826434 3.246434,2.786973 10.80622,-6.134876 1.858789,-2.193692 3.785698,-3.98853 4.282021,-3.98853 0.496321,0 -0.585688,1.738499 -2.404465,3.863331 -1.818778,2.124833 -3.435366,4.703782 -3.59242,5.730999 -0.194183,1.270058 -1.787007,2.435964 -4.977941,3.643722 -4.817159,1.823284 -7.539706,2.001867 -14.077164,0.923368 z M 24.817961,87.01336 c -5.72342,-3.148777 -9.445464,-6.200347 -6.100105,-5.001256 3.220045,1.154174 13.209424,7.982092 11.496351,7.85796 -0.129041,-0.0094 -2.557351,-1.294867 -5.396246,-2.856704 z m 20.201368,0.104877 c -0.787499,-1.522856 -1.429215,-3.740009 -1.426034,-4.927008 0.0057,-2.124638 0.02539,-2.120618 1.26695,0.258583 1.231624,2.360143 2.532703,7.437253 1.905899,7.437253 -0.173248,0 -0.959315,-1.245973 -1.746815,-2.768828 z m 30.945661,-0.0466 c 0.319007,-0.516163 1.002326,-0.938478 1.518489,-0.938478 0.516163,0 0.677473,0.422315 0.358467,0.938478 -0.319007,0.516163 -1.002326,0.938477 -1.518489,0.938477 -0.516163,0 -0.677473,-0.422314 -0.358467,-0.938477 z M 58.603155,83.193874 c 0,-1.417896 3.85137,-7.599339 4.395668,-7.055041 0.477136,0.477137 -3.236451,8.117366 -3.945503,8.117366 -0.247591,0 -0.450165,-0.478046 -0.450165,-1.062325 z m 26.311123,-2.14845 c -0.01856,-0.47552 0.549697,-1.531307 1.262798,-2.346194 0.713102,-0.814887 2.719098,-4.22666 4.457768,-7.581717 2.661805,-5.136399 3.193228,-7.212073 3.363817,-13.138686 0.111427,-3.87122 0.223473,-7.460897 0.24899,-7.97706 0.02552,-0.516162 0.455772,-0.305005 0.95613,0.469239 0.500359,0.774244 0.909732,4.575078 0.909732,8.446298 0,3.87122 -0.409373,7.672055 -0.909732,8.446299 -0.500358,0.774244 -0.920327,0.985401 -0.933278,0.469238 -0.01294,-0.516162 -1.038332,1.173097 -2.27864,3.753911 -2.27097,4.725401 -7.014868,11.065272 -7.077585,9.458672 z M 11.175371,76.04742 C 7.2010063,71.146143 3.2676746,64.364529 3.2489792,62.381209 3.2401773,61.447463 2.8106609,60.944492 2.2944982,61.263498 1.7783355,61.582505 1.3560206,60.949032 1.3560206,59.855782 c 0,-1.09325 0.4223149,-1.726723 0.9384776,-1.407716 0.5391262,0.333198 0.9472482,-0.541774 0.9590885,-2.056189 0.021087,-2.697135 3.4299191,-11.229465 4.1847999,-10.474585 0.22998,0.229981 -0.2229893,2.510015 -1.0065986,5.066743 -2.0010666,6.528999 -0.4939588,13.993976 4.419955,21.892837 2.046959,3.29038 3.582841,6.121411 3.41307,6.291181 -0.169771,0.169771 -1.560019,-1.234514 -3.089442,-3.120633 z m 62.443425,2.812671 c 0,-0.447971 0.612468,-1.634261 1.36104,-2.636199 1.313089,-1.757528 1.342162,-1.7468 0.825197,0.304492 -0.533867,2.118361 -2.186237,3.880678 -2.186237,2.331707 z m -34.61876,-7.175589 c -2.23509,-3.367043 -3.300711,-6.184193 -3.58688,-9.482526 -0.301286,-3.472578 -0.149322,-4.326445 0.584577,-3.284672 0.545432,0.774244 0.998162,2.314586 1.006066,3.422981 0.0079,1.108396 1.312511,4.631683 2.899128,7.829529 1.586617,3.197844 2.747983,5.92464 2.580813,6.059544 -0.167169,0.134904 -1.734836,-1.91028 -3.483704,-4.544856 z M 25.451097,67.258696 c -2.091632,-3.569099 -2.510091,-5.408722 -2.510091,-11.0348 0,-6.324333 2.089662,-14.299307 3.402747,-12.986222 0.309472,0.309473 0.07768,2.591468 -0.515094,5.071101 -1.178301,4.92895 0.03471,17.391317 1.913057,19.654586 0.554182,0.667749 0.830274,1.746078 0.613539,2.396286 -0.216737,0.650209 -1.523607,-0.745219 -2.904158,-3.100951 z m 40.659879,3.173314 c 0,-0.606724 0.501598,-2.204025 1.114663,-3.549556 2.06346,-4.5288 -0.677082,-14.013454 -7.298166,-25.257987 -3.13065,-5.31676 -3.597021,-8.657492 -1.089205,-7.802245 0.644932,0.219943 1.082921,1.20527 0.973311,2.189616 -0.109611,0.984347 0.523862,3.106824 1.407716,4.716618 0.883855,1.609794 2.555121,4.650644 3.713925,6.757444 5.103281,9.278183 6.059216,17.079987 2.683321,21.899751 -0.828061,1.182223 -1.505565,1.653085 -1.505565,1.046359 z M 81.200707,59.308337 c 0.04503,-1.093273 0.267411,-1.315652 0.566997,-0.566997 0.271099,0.677463 0.237758,1.4869 -0.07409,1.798749 -0.311849,0.311848 -0.533657,-0.242441 -0.492908,-1.231752 z M 37.59359,50.001767 c 0.3537,-1.548488 1.213555,-3.648451 1.91079,-4.666585 0.697235,-1.018135 1.2677,-3.235288 1.2677,-4.927007 0,-1.691721 0.427306,-3.075855 0.949569,-3.075855 1.575806,0 -0.06492,7.643578 -2.518112,11.73097 -2.089784,3.481907 -2.206439,3.549908 -1.609947,0.938477 z m 40.482975,-3.703796 c -1.419447,-1.778976 -2.580813,-3.707558 -2.580813,-4.285738 0,-0.57818 -1.076933,-2.463169 -2.393185,-4.188863 -2.533675,-3.32182 -1.923955,-4.848067 1.502324,-3.760608 1.335078,0.423736 1.74192,1.12807 1.355275,2.346282 -0.322805,1.017066 0.641916,4.106905 2.320484,7.432131 1.580143,3.130245 2.761329,5.691341 2.624857,5.691326 -0.13647,-1.6e-5 -1.409495,-1.455554 -2.828942,-3.23453 z M 9.4629408,41.555469 c 0.2971053,-0.774244 0.9690342,-1.407716 1.4931742,-1.407716 0.549295,0 0.458085,0.596315 -0.215318,1.407716 -0.642566,0.774244 -1.3144942,1.407717 -1.4931744,1.407717 -0.1786803,0 -0.081787,-0.633473 0.2153182,-1.407717 z M 26.723454,40.570068 c -0.0157,-1.058134 -0.535316,-2.430657 -1.154711,-3.050052 -1.382006,-1.382006 -7.724216,-1.478207 -10.197255,-0.154677 -0.998393,0.534324 -1.815259,0.589974 -1.815259,0.123668 0,-1.022136 9.90599,-3.910597 13.411412,-3.910597 2.308022,0 2.452537,0.229461 1.920938,3.050052 -0.778329,4.12971 -2.125943,6.583039 -2.165125,3.941606 z M 86.739653,39.65703 c -0.991768,-1.195007 -0.933708,-1.332336 0.354327,-0.83807 0.847252,0.32512 1.540458,0.968261 1.540458,1.4292 0,1.206843 -0.543259,1.037359 -1.894785,-0.59113 z M 41.291857,34.598659 C 40.945055,34.037522 39.20813,33.57841 37.432022,33.57841 c -1.776107,0 -3.229285,-0.422315 -3.229285,-0.938478 0,-0.536273 2.815433,-0.938477 6.569343,-0.938477 3.753911,0 6.569343,0.402204 6.569343,0.938477 0,0.516163 -0.760166,0.938478 -1.689259,0.938478 -0.929093,0 -2.148373,0.459112 -2.709509,1.020249 -0.734681,0.73468 -1.196741,0.73468 -1.650798,0 z" id="path3340" inkscape:connector-curvature="0"/>
  </g>
</svg>